
<svg xmlns="http://www.w3.org/2000/svg" fill="#fff" width="800" height="800" viewBox="0 0 32 32" xmlns:v="https://vecta.io/nano"><path d="M27.002 5.005H3.997a1 1 0 0 1-.997-1c0-.553.446-.999.997-.999h10.536v-1a1 1 0 0 1 .998-.999 1 1 0 0 1 .997.999v1h10.474a1 1 0 0 1 .998.999 1 1 0 0 1-.998 1zm0 15.993H3.997V6.004h23.005v14.994zM7 13.032c0 2.213 1.791 4.007 4 4.007s4-1.794 4-4.007h-4V9.023c-2.209 0-4 1.795-4 4.009zm11.024-4.029h-.997v.999h.997v-.999zm0 1.999h-.997v.999h.997v-.999zm0 1.999h-.997V14h.997v-.999zm0 1.999h-.997v1h.997v-1zm0 2h-.997v1h.997v-1zm5.986-7.997h-4.987v.999h4.987v-.999zm0 1.999h-4.987v.999h4.987v-.999zm0 1.999h-4.987V14h4.987v-.999zm0 1.999h-4.987v1h4.987v-1zm0 2h-4.987v1h4.987v-1zm-11.229 8.996h2.251v-4.998h.998v4.998h2.216l-2.216-4.998h1.995l3.989 8.996H20.02l-1.33-3h-2.66v4.998h-.998v-4.998h-2.701l-1.351 3H8.985l4.052-8.996h1.995l-2.251 4.998zm3.249-4.998h0 0 0zm-.998 0h0 0 0z"/></svg>
